<svg width="96" height="125" xmlns="http://www.w3.org/2000/svg" xmlns:xlink="http://www.w3.org/1999/xlink" xml:space="preserve" overflow="hidden"><defs><clipPath id="clip0"><path d="M58.9217 6.76254 102.699 59.1565 25.4274 123.678-18.3503 71.2844Z"/></clipPath><clipPath id="clip1"><path d="M58.9217 6.76254 102.699 59.1565 25.4274 123.678-18.3503 71.2844Z"/></clipPath><clipPath id="clip2"><path d="M58.9217 6.76254 102.699 59.1565 25.4274 123.678-18.3503 71.2844Z"/></clipPath></defs><g><g><g clip-path="url(#clip0)"><g clip-path="url(#clip1)"><g clip-path="url(#clip2)"><path d="M62.7704 235.199C65.066 238.958 69.2733 241.455 73.2976 242.992 74.7564 243.545 77.3951 244.551 78.5841 243.037 79.357 242.054 78.8448 241.03 78.4104 240.124 77.4043 238.025 76.1741 236.063 74.5232 234.385 72.1132 231.938 68.9989 230.791 65.5325 229.629 68.5965 228.586 71.4501 228.129 74.3083 227.722 75.6345 227.53 76.8189 227.452 78.1726 228.408 80.6923 230.191 84.4468 230.836 86.7563 230.649 89.0748 230.443 91.2608 229.803 93.3187 228.724 94.8415 227.932 96.7256 226.83 97.5671 225.266 97.6128 225.189 97.6448 225.111 97.6585 225.024 97.7774 223.913 95.34 222.742 94.5808 222.376 89.5321 219.948 83.0841 220.936 78.8768 224.498 76.4759 226.533 73.8098 226.368 70.9836 226.556 71.2946 226.533 72.1406 225.262 72.3647 225.01 72.8129 224.493 73.2565 223.972 73.6772 223.432 75.5384 221.054 76.7275 218.315 77.5598 215.416 78.0674 213.637 78.5293 211.762 78.3692 209.896 78.296 209.036 78.3097 207.879 77.1527 208.177 76.8555 208.263 76.572 208.396 76.3113 208.561 73.6086 210.143 71.1025 212.242 69.9593 215.247 69.1956 217.245 68.4593 219.23 67.9837 221.343 67.5218 223.423 67.412 225.554 67.0462 227.795 63.8633 228.504 60.8725 229.647 57.9091 231.051 63.9228 218.375 70.2154 205.982 74.6879 192.829 77.0156 192.93 79.0323 193.067 81.081 192.692 85.9057 191.819 90.0992 189.573 94.1601 187.008 95.2759 186.313 96.1448 185.384 96.7622 184.227 97.5991 182.65 96.9909 181.241 95.2897 180.569 94.1555 180.13 92.9848 179.924 91.7729 179.951 88.4849 179.993 85.6176 181.204 82.8554 182.851 80.6695 184.154 78.8494 185.896 76.572 188.073 77.1162 185.691 77.4866 183.893 77.9393 182.11 78.2777 180.788 78.5613 179.435 79.3753 178.291 81.863 174.788 82.2609 170.673 82.7228 166.584 82.9514 164.499 82.7091 162.468 81.9957 160.488 81.5704 159.299 80.9942 158.101 79.8966 157.383 77.2991 155.687 75.9134 160.712 75.3418 162.546 74.4546 165.372 74.1482 168.51 75.0491 171.377 76.5994 176.307 78.4927 177.226 75.6482 186.537 74.1528 191.421 72.1086 196.108 70.2337 201.193 69.8998 191.101 65.6103 183.779 62.2124 183.084 61.092 183.4 60.7628 184.922 60.4289 186.034 59.2399 189.98 60.1271 193.684 62.0935 197.169 63.5752 199.794 65.185 202.337 67.1285 204.651 67.7002 205.337 68.1026 205.995 67.723 206.978 66.4014 210.408 64.7368 213.664 62.9579 217.044 61.5813 215.59 61.1926 213.875 60.4884 212.352 58.3893 207.843 54.7126 205.2 50.2675 203.448 49.2294 203.041 47.8849 202.511 46.8514 203.206 45.6441 204.02 45.6853 205.707 46.1837 206.928 47.2813 209.622 49.0876 212.027 51.2187 213.998 53.4961 216.116 56.2354 217.492 58.929 218.987L60.7216 219.984C60.9183 220.099 61.3115 220.222 61.4624 220.4 58.0052 227.608 54.3924 234.522 49.7416 240.893 49.5221 239.123 49.7782 237.33 49.6593 235.547 49.5404 233.841 49.3712 227.274 47.8529 223.936 47.4093 222.971 46.9291 222.106 45.7218 221.814 44.4277 221.992 43.7188 224.146 43.2981 225.609 41.8073 230.836 42.3789 235.954 44.4231 240.957 44.8118 241.912 45.2188 242.859 45.667 243.787 46.3026 245.095 46.1014 246.11 45.1273 247.267 44.263 248.022 43.545 249.056 42.7448 249.883 41.8667 250.789 40.975 251.68 40.0741 252.559 38.2631 254.31 36.4019 256.007 34.4812 257.639 34.1885 257.886 33.8729 258.247 34.0239 258.6 34.1336 258.856 34.4674 258.956 34.7373 258.888 35.0071 258.824 35.2312 258.641 35.4415 258.462 37.0238 257.104 38.5466 255.687 40.0146 254.2 40.5908 253.619 41.1853 253.007 41.9673 252.751 42.8408 252.467 43.792 252.677 44.702 252.847 47.6425 253.391 50.5922 253.45 53.5464 253.034 56.5006 252.618 59.3131 251.745 61.9792 250.409 62.9807 249.906 63.9594 249.334 64.7597 248.552 65.1392 248.187 65.4913 247.72 65.4502 247.194 65.4456 247.103 65.4273 247.021 65.3999 246.938 65.2261 246.412 64.6819 246.046 64.1606 245.813 63.0539 245.319 61.842 245.1 60.6393 244.981 56.7796 244.615 53.0754 245.205 49.5358 246.755 49.0053 246.988 48.5023 247.272 47.9718 247.496 47.8712 247.537 46.417 247.848 46.4855 247.633 46.6365 247.171 47.2264 246.664 47.5465 246.271 47.9169 245.822 48.2828 245.374 48.6441 244.921 49.3803 243.998 50.1029 243.065 50.798 242.114 52.1379 240.307 53.3543 238.419 54.4519 236.457 55.9199 233.795 58.3482 232.533 61.0783 231.271 60.7856 231.403 62.5691 234.874 62.7704 235.199Z" transform="matrix(1.0003 0 0 1 -19.4253 -148.069)"/></g></g></g></g></g></svg>