<svg xmlns="http://www.w3.org/2000/svg" xmlns:xlink="http://www.w3.org/1999/xlink" width="140" zoomAndPan="magnify" viewBox="0 0 104.88 233.249991" height="311" preserveAspectRatio="xMidYMid meet" version="1.0"><defs><filter x="0%" y="0%" width="100%" height="100%" id="a34027dd12"><feColorMatrix values="0 0 0 0 1 0 0 0 0 1 0 0 0 0 1 0 0 0 1 0" color-interpolation-filters="sRGB"/></filter><clipPath id="7681decb2f"><path d="M 0.109375 0 L 104.652344 0 L 104.652344 102 L 0.109375 102 Z M 0.109375 0 " clip-rule="nonzero"/></clipPath><mask id="634338ca0f"><g filter="url(#a34027dd12)"><rect x="-10.488" width="125.856" fill="#000000" y="-23.324999" height="279.89999" fill-opacity="0.2863"/></g></mask><clipPath id="e54b9a4db5"><path d="M 29 2 L 84 2 L 84 90 L 29 90 Z M 29 2 " clip-rule="nonzero"/></clipPath><clipPath id="23c26bf7e5"><path d="M 66.902344 0.675781 L 104.285156 45.433594 L 38.300781 100.546875 L 0.917969 55.792969 Z M 66.902344 0.675781 " clip-rule="nonzero"/></clipPath><clipPath id="60336493a4"><path d="M 66.902344 0.675781 L 104.285156 45.433594 L 38.300781 100.546875 L 0.917969 55.792969 Z M 66.902344 0.675781 " clip-rule="nonzero"/></clipPath><clipPath id="165a0b7ed1"><path d="M 66.902344 0.675781 L 104.285156 45.433594 L 38.300781 100.546875 L 0.917969 55.792969 Z M 66.902344 0.675781 " clip-rule="nonzero"/></clipPath><clipPath id="425119435c"><rect x="0" width="105" y="0" height="102"/></clipPath><clipPath id="a940fe0a9f"><path d="M 0.109375 132 L 104.652344 132 L 104.652344 232.503906 L 0.109375 232.503906 Z M 0.109375 132 " clip-rule="nonzero"/></clipPath><mask id="b9c68dd697"><g filter="url(#a34027dd12)"><rect x="-10.488" width="125.856" fill="#000000" y="-23.324999" height="279.89999" fill-opacity="0.2863"/></g></mask><clipPath id="8ed16f3d20"><path d="M 29 2 L 84 2 L 84 90 L 29 90 Z M 29 2 " clip-rule="nonzero"/></clipPath><clipPath id="cfdaef7d6e"><path d="M 66.902344 0.253906 L 104.285156 45.007812 L 38.300781 100.121094 L 0.917969 55.367188 Z M 66.902344 0.253906 " clip-rule="nonzero"/></clipPath><clipPath id="1a35e6ea18"><path d="M 66.902344 0.253906 L 104.285156 45.007812 L 38.300781 100.121094 L 0.917969 55.367188 Z M 66.902344 0.253906 " clip-rule="nonzero"/></clipPath><clipPath id="caa50ca4cc"><path d="M 66.902344 0.253906 L 104.285156 45.007812 L 38.300781 100.121094 L 0.917969 55.367188 Z M 66.902344 0.253906 " clip-rule="nonzero"/></clipPath><clipPath id="3ea5184f9c"><rect x="0" width="105" y="0" height="101"/></clipPath></defs><g clip-path="url(#7681decb2f)"><g mask="url(#634338ca0f)"><g transform="matrix(1, 0, 0, 1, 0, 0)"><g clip-path="url(#425119435c)"><g clip-path="url(#e54b9a4db5)"><g clip-path="url(#23c26bf7e5)"><g clip-path="url(#60336493a4)"><g clip-path="url(#165a0b7ed1)"><path fill="#000000" d="M 53.617188 69.324219 C 55.578125 72.535156 59.171875 74.671875 62.609375 75.980469 C 63.855469 76.453125 66.109375 77.3125 67.125 76.019531 C 67.785156 75.183594 67.347656 74.304688 66.976562 73.535156 C 66.117188 71.742188 65.066406 70.0625 63.65625 68.632812 C 61.597656 66.542969 58.9375 65.558594 55.976562 64.570312 C 58.59375 63.675781 61.03125 63.289062 63.472656 62.9375 C 64.605469 62.773438 65.617188 62.707031 66.773438 63.523438 C 68.925781 65.046875 72.132812 65.601562 74.105469 65.441406 C 76.085938 65.265625 77.953125 64.714844 79.710938 63.792969 C 81.011719 63.117188 82.621094 62.175781 83.339844 60.839844 C 83.378906 60.777344 83.40625 60.707031 83.417969 60.632812 C 83.519531 59.683594 81.4375 58.683594 80.789062 58.371094 C 76.476562 56.300781 70.96875 57.140625 67.375 60.1875 C 65.324219 61.925781 63.046875 61.785156 60.632812 61.941406 C 60.898438 61.925781 61.621094 60.839844 61.8125 60.621094 C 62.195312 60.183594 62.574219 59.734375 62.933594 59.277344 C 64.523438 57.242188 65.539062 54.90625 66.25 52.429688 C 66.683594 50.90625 67.078125 49.304688 66.941406 47.710938 C 66.878906 46.976562 66.890625 45.988281 65.902344 46.242188 C 65.648438 46.320312 65.40625 46.429688 65.183594 46.574219 C 62.875 47.925781 60.734375 49.71875 59.757812 52.28125 C 59.105469 53.988281 58.476562 55.6875 58.070312 57.488281 C 57.675781 59.269531 57.582031 61.085938 57.269531 63.003906 C 54.550781 63.605469 51.996094 64.582031 49.464844 65.78125 C 54.601562 54.957031 59.976562 44.371094 63.796875 33.132812 C 65.785156 33.21875 67.507812 33.335938 69.257812 33.019531 C 73.378906 32.269531 76.960938 30.351562 80.429688 28.164062 C 81.382812 27.570312 82.125 26.777344 82.652344 25.785156 C 83.367188 24.4375 82.847656 23.234375 81.394531 22.664062 C 80.425781 22.285156 79.425781 22.109375 78.390625 22.136719 C 75.582031 22.167969 73.132812 23.203125 70.773438 24.609375 C 68.90625 25.726562 67.351562 27.210938 65.40625 29.074219 C 65.871094 27.039062 66.1875 25.5 66.574219 23.976562 C 66.863281 22.851562 67.105469 21.691406 67.800781 20.714844 C 69.925781 17.726562 70.265625 14.207031 70.660156 10.714844 C 70.855469 8.933594 70.648438 7.199219 70.039062 5.511719 C 69.675781 4.492188 69.183594 3.472656 68.246094 2.855469 C 66.027344 1.40625 64.84375 5.699219 64.355469 7.265625 C 63.597656 9.679688 63.335938 12.359375 64.105469 14.808594 C 65.429688 19.019531 67.046875 19.804688 64.617188 27.757812 C 63.339844 31.933594 61.59375 35.9375 59.992188 40.28125 C 59.707031 31.65625 56.042969 25.402344 53.140625 24.808594 C 52.183594 25.078125 51.902344 26.378906 51.617188 27.328125 C 50.601562 30.699219 51.359375 33.863281 53.039062 36.839844 C 54.304688 39.082031 55.679688 41.253906 57.339844 43.234375 C 57.828125 43.816406 58.171875 44.382812 57.847656 45.21875 C 56.71875 48.152344 55.296875 50.929688 53.777344 53.816406 C 52.601562 52.574219 52.269531 51.109375 51.667969 49.808594 C 49.875 45.960938 46.734375 43.699219 42.9375 42.207031 C 42.050781 41.855469 40.902344 41.402344 40.019531 41.996094 C 38.988281 42.691406 39.023438 44.136719 39.449219 45.175781 C 40.386719 47.480469 41.929688 49.53125 43.75 51.21875 C 45.695312 53.023438 48.035156 54.199219 50.335938 55.480469 L 51.867188 56.332031 C 52.035156 56.425781 52.371094 56.535156 52.5 56.683594 C 49.546875 62.839844 46.460938 68.746094 42.488281 74.191406 C 42.300781 72.675781 42.519531 71.144531 42.417969 69.621094 C 42.316406 68.164062 42.171875 62.554688 40.875 59.703125 C 40.496094 58.878906 40.085938 58.144531 39.054688 57.894531 C 37.949219 58.042969 37.34375 59.882812 36.984375 61.136719 C 35.710938 65.601562 36.199219 69.972656 37.945312 74.246094 C 38.277344 75.0625 38.625 75.871094 39.007812 76.664062 C 39.550781 77.78125 39.378906 78.644531 38.546875 79.632812 C 37.808594 80.277344 37.195312 81.160156 36.511719 81.867188 C 35.761719 82.640625 35 83.402344 34.230469 84.152344 C 32.683594 85.648438 31.09375 87.097656 29.453125 88.496094 C 29.203125 88.703125 28.933594 89.015625 29.0625 89.3125 C 29.15625 89.53125 29.441406 89.617188 29.671875 89.5625 C 29.902344 89.507812 30.09375 89.347656 30.273438 89.195312 C 31.625 88.035156 32.925781 86.824219 34.179688 85.554688 C 34.671875 85.058594 35.179688 84.535156 35.847656 84.316406 C 36.59375 84.074219 37.40625 84.257812 38.183594 84.402344 C 40.695312 84.863281 43.214844 84.917969 45.738281 84.558594 C 48.261719 84.203125 50.664062 83.457031 52.941406 82.320312 C 53.796875 81.890625 54.632812 81.402344 55.316406 80.734375 C 55.640625 80.417969 55.941406 80.019531 55.90625 79.570312 C 55.902344 79.496094 55.886719 79.421875 55.863281 79.351562 C 55.714844 78.90625 55.25 78.589844 54.804688 78.394531 C 53.859375 77.972656 52.824219 77.78125 51.796875 77.683594 C 48.5 77.367188 45.335938 77.871094 42.3125 79.199219 C 41.859375 79.394531 41.429688 79.636719 40.976562 79.828125 C 40.890625 79.863281 39.648438 80.132812 39.707031 79.945312 C 39.835938 79.550781 40.339844 79.121094 40.613281 78.785156 C 40.929688 78.402344 41.242188 78.015625 41.550781 77.628906 C 42.179688 76.839844 42.796875 76.046875 43.390625 75.234375 C 44.535156 73.6875 45.574219 72.078125 46.511719 70.398438 C 47.765625 68.125 49.839844 67.046875 52.171875 65.96875 C 51.921875 66.082031 53.445312 69.046875 53.617188 69.324219 Z M 53.617188 69.324219 " fill-opacity="1" fill-rule="nonzero"/></g></g></g></g></g></g></g></g><g clip-path="url(#a940fe0a9f)"><g mask="url(#b9c68dd697)"><g transform="matrix(1, 0, 0, 1, 0, 132)"><g clip-path="url(#3ea5184f9c)"><g clip-path="url(#8ed16f3d20)"><g clip-path="url(#cfdaef7d6e)"><g clip-path="url(#1a35e6ea18)"><g clip-path="url(#caa50ca4cc)"><path fill="#000000" d="M 53.617188 68.902344 C 55.578125 72.113281 59.171875 74.246094 62.609375 75.558594 C 63.855469 76.03125 66.109375 76.890625 67.125 75.597656 C 67.785156 74.757812 67.347656 73.882812 66.976562 73.109375 C 66.117188 71.316406 65.066406 69.640625 63.65625 68.207031 C 61.597656 66.117188 58.9375 65.136719 55.976562 64.144531 C 58.59375 63.253906 61.03125 62.863281 63.472656 62.515625 C 64.605469 62.351562 65.617188 62.285156 66.773438 63.101562 C 68.925781 64.625 72.132812 65.175781 74.105469 65.015625 C 76.085938 64.839844 77.953125 64.292969 79.710938 63.371094 C 81.011719 62.695312 82.621094 61.753906 83.339844 60.417969 C 83.378906 60.351562 83.40625 60.285156 83.417969 60.210938 C 83.519531 59.261719 81.4375 58.261719 80.789062 57.949219 C 76.476562 55.875 70.96875 56.71875 67.375 59.761719 C 65.324219 61.5 63.046875 61.359375 60.632812 61.519531 C 60.898438 61.5 61.621094 60.414062 61.8125 60.199219 C 62.195312 59.757812 62.574219 59.3125 62.933594 58.851562 C 64.523438 56.820312 65.539062 54.480469 66.25 52.003906 C 66.683594 50.484375 67.078125 48.882812 66.941406 47.289062 C 66.878906 46.554688 66.890625 45.566406 65.902344 45.820312 C 65.648438 45.894531 65.40625 46.007812 65.183594 46.148438 C 62.875 47.5 60.734375 49.292969 59.757812 51.859375 C 59.105469 53.566406 58.476562 55.261719 58.070312 57.066406 C 57.675781 58.84375 57.582031 60.664062 57.269531 62.578125 C 54.550781 63.183594 51.996094 64.160156 49.464844 65.359375 C 54.601562 54.53125 59.976562 43.945312 63.796875 32.710938 C 65.785156 32.796875 67.507812 32.914062 69.257812 32.59375 C 73.378906 31.847656 76.960938 29.929688 80.429688 27.738281 C 81.382812 27.144531 82.125 26.351562 82.652344 25.363281 C 83.367188 24.015625 82.847656 22.8125 81.394531 22.238281 C 80.425781 21.863281 79.425781 21.6875 78.390625 21.710938 C 75.582031 21.746094 73.132812 22.78125 70.773438 24.1875 C 68.90625 25.300781 67.351562 26.789062 65.40625 28.648438 C 65.871094 26.613281 66.1875 25.078125 66.574219 23.554688 C 66.863281 22.425781 67.105469 21.269531 67.800781 20.292969 C 69.925781 17.300781 70.265625 13.785156 70.660156 10.292969 C 70.855469 8.511719 70.648438 6.777344 70.039062 5.085938 C 69.675781 4.070312 69.183594 3.046875 68.246094 2.433594 C 66.027344 0.984375 64.84375 5.277344 64.355469 6.84375 C 63.597656 9.257812 63.335938 11.9375 64.105469 14.386719 C 65.429688 18.597656 67.046875 19.382812 64.617188 27.335938 C 63.339844 31.507812 61.59375 35.511719 59.992188 39.855469 C 59.707031 31.234375 56.042969 24.980469 53.140625 24.386719 C 52.183594 24.65625 51.902344 25.957031 51.617188 26.90625 C 50.601562 30.277344 51.359375 33.441406 53.039062 36.417969 C 54.304688 38.660156 55.679688 40.832031 57.339844 42.808594 C 57.828125 43.394531 58.171875 43.957031 57.847656 44.796875 C 56.71875 47.726562 55.296875 50.507812 53.777344 53.394531 C 52.601562 52.152344 52.269531 50.6875 51.667969 49.386719 C 49.875 45.535156 46.734375 43.277344 42.9375 41.78125 C 42.050781 41.433594 40.902344 40.980469 40.019531 41.574219 C 38.988281 42.269531 39.023438 43.710938 39.449219 44.753906 C 40.386719 47.054688 41.929688 49.109375 43.75 50.792969 C 45.695312 52.601562 48.035156 53.777344 50.335938 55.054688 L 51.867188 55.90625 C 52.035156 56.003906 52.371094 56.109375 52.5 56.261719 C 49.546875 62.417969 46.460938 68.324219 42.488281 73.765625 C 42.300781 72.253906 42.519531 70.722656 42.417969 69.199219 C 42.316406 67.742188 42.171875 62.132812 40.875 59.28125 C 40.496094 58.457031 40.085938 57.71875 39.054688 57.46875 C 37.949219 57.621094 37.34375 59.460938 36.984375 60.710938 C 35.710938 65.175781 36.199219 69.546875 37.945312 73.820312 C 38.277344 74.636719 38.625 75.445312 39.007812 76.238281 C 39.550781 77.355469 39.378906 78.222656 38.546875 79.210938 C 37.808594 79.855469 37.195312 80.738281 36.511719 81.445312 C 35.761719 82.21875 35 82.980469 34.230469 83.730469 C 32.683594 85.226562 31.09375 86.675781 29.453125 88.070312 C 29.203125 88.28125 28.933594 88.589844 29.0625 88.890625 C 29.15625 89.109375 29.441406 89.195312 29.671875 89.136719 C 29.902344 89.082031 30.09375 88.925781 30.273438 88.773438 C 31.625 87.613281 32.925781 86.402344 34.179688 85.132812 C 34.671875 84.636719 35.179688 84.113281 35.847656 83.894531 C 36.59375 83.652344 37.40625 83.832031 38.183594 83.976562 C 40.695312 84.441406 43.214844 84.492188 45.738281 84.136719 C 48.261719 83.78125 50.664062 83.035156 52.941406 81.894531 C 53.796875 81.464844 54.632812 80.976562 55.316406 80.308594 C 55.640625 79.996094 55.941406 79.597656 55.90625 79.148438 C 55.902344 79.070312 55.886719 79 55.863281 78.929688 C 55.714844 78.480469 55.25 78.167969 54.804688 77.96875 C 53.859375 77.546875 52.824219 77.359375 51.796875 77.257812 C 48.5 76.945312 45.335938 77.449219 42.3125 78.773438 C 41.859375 78.972656 41.429688 79.214844 40.976562 79.40625 C 40.890625 79.441406 39.648438 79.707031 39.707031 79.523438 C 39.835938 79.128906 40.339844 78.695312 40.613281 78.359375 C 40.929688 77.976562 41.242188 77.59375 41.550781 77.207031 C 42.179688 76.417969 42.796875 75.621094 43.390625 74.808594 C 44.535156 73.265625 45.574219 71.652344 46.511719 69.976562 C 47.765625 67.703125 49.839844 66.625 52.171875 65.546875 C 51.921875 65.660156 53.445312 68.625 53.617188 68.902344 Z M 53.617188 68.902344 " fill-opacity="1" fill-rule="nonzero"/></g></g></g></g></g></g></g></g></svg>